{"title":"Karmin - Pulses [Music Video] 1080p [Sbyky]","uid":9811697,"size":99302720,"categoryP":"video","categoryS":"music_videos","magnet":"?xt=urn:btih:23ffdcadd81606bbb9327082a0cd17c2427f9a90&amp;dn=Karmin+-+Pulses+%5BMusic+Video%5D+1080p+%5BSbyky%5D&amp;tr=udp%3A%2F%2Ftracker.openbittorrent.com%3A80&amp;tr=udp%3A%2F%2Fopen.demonii.com%3A1337&amp;tr=udp%3A%2F%2Ftracker.coppersurfer.tk%3A6969&amp;tr=udp%3A%2F%2Fexodus.desync.com%3A6969","seeders":3,"leechers":0,"uploader":"Sbyky","files":1,"time":1395545541,"description":"\n\nGeneral\nComplete name                            : Karmin - Pulses [Music Video] 1080p [Sbyky].MP4\nFormat                                   : MPEG-4\nFormat profile                           : Base Media\nCodec ID                                 : isom\nFile size                                : 94.7 MiB\nDuration                                 : 4mn 25s\nOverall bit rate mode                    : Variable\nOverall bit rate                         : 2 989 Kbps\nEncoded date                             : UTC 2014-03-10 21:46:02\nTagged date                              : UTC 2014-03-10 21:46:02\n\nVideo\nID                                       : 1\nFormat                                   : AVC\nFormat/Info                              : Advanced Video Codec\nFormat profile                           : &lt;a class=&quot;__cf_email__&quot; href=&quot;/cdn-cgi/l/email-protection&quot; data-cfemail=&quot;ffb7969897bfb3cbd1cf&quot;&gt;[email&amp;#160;protected]&lt;/a&gt;&lt;script cf-hash='f9e31' type=&quot;text/javascript&quot;&gt;\n/* &lt;![CDATA[ */!function(){try{var t=&quot;currentScript&quot;in document?document.currentScript:function(){for(var t=document.getElementsByTagName(&quot;script&quot;),e=t.length;e--;)if(t[e].getAttribute(&quot;cf-hash&quot;))return t[e]}();if(t&amp;&amp;t.previousSibling){var e,r,n,i,c=t.previousSibling,a=c.getAttribute(&quot;data-cfemail&quot;);if(a){for(e=&quot;&quot;,r=parseInt(a.substr(0,2),16),n=2;a.length-n;n+=2)i=parseInt(a.substr(n,2),16)^r,e+=String.fromCharCode(i);e=document.createTextNode(e),c.parentNode.replaceChild(e,c)}}}catch(u){}}();/* ]]&gt; */&lt;/script&gt;\nFormat settings, CABAC                   : Yes\nFormat settings, ReFrames                : 2 frames\nCodec ID                                 : avc1\nCodec ID/Info                            : Advanced Video Coding\nDuration                                 : 4mn 25s\nDuration_LastFrame                       : -1ms\nBit rate                                 : 2 860 Kbps\nWidth                                    : 1 920 pixels\nHeight                                   : 1 080 pixels\nDisplay aspect ratio                     : 16:9\nFrame rate mode                          : Constant\nFrame rate                               : 23.976 fps\nColor space                              : YUV\nChroma subsampling                       : 4:2:0\nBit depth                                : 8 bits\nScan type                                : Progressive\nBits/(Pixel*Frame)                       : 0.058\nStream size                              : 90.6 MiB (96%)\nEncoded date                             : UTC 2014-03-10 21:46:02\nTagged date                              : UTC 2014-03-10 21:46:02\n\nAudio\nID                                       : 2\nFormat                                   : AAC\nFormat/Info                              : Advanced Audio Codec\nFormat profile                           : LC\nCodec ID                                 : 40\nDuration                                 : 4mn 25s\nBit rate mode                            : Variable\nBit rate                                 : 126 Kbps\nChannel(s)                               : 2 channels\nChannel positions                        : Front: L R\nSampling rate                            : 44.1 KHz\nCompression mode                         : Lossy\nStream size                              : 3.98 MiB (4%)\nEncoded date                             : UTC 2014-03-10 21:45:31\nTagged date                              : UTC 2014-03-10 21:45:31\n\nShared By Sbyky\n","torrent":{"xt":"urn:btih:23ffdcadd81606bbb9327082a0cd17c2427f9a90","amp;dn":"Karmin+-+Pulses+%5BMusic+Video%5D+1080p+%5BSbyky%5D","amp;tr":["udp%3A%2F%2Ftracker.openbittorrent.com%3A80","udp%3A%2F%2Fopen.demonii.com%3A1337","udp%3A%2F%2Ftracker.coppersurfer.tk%3A6969","udp%3A%2F%2Fexodus.desync.com%3A6969"],"infoHash":"23ffdcadd81606bbb9327082a0cd17c2427f9a90","infoHashBuffer":{"type":"Buffer","data":[35,255,220,173,216,22,6,187,185,50,112,130,160,205,23,194,66,127,154,144]},"announce":[],"urlList":[]}}